<svg version="1.1" id="Layer_1" xmlns="http://www.w3.org/2000/svg" xmlns:xlink="http://www.w3.org/1999/xlink" x="0px" y="0px"
	 width="100%" viewBox="0 0 1129 1056" enable-background="new 0 0 1129 1056" xml:space="preserve">
<path fill="#333742" opacity="1.000000" stroke="none" 
	d="
M643.000000,1057.000000 
	C428.691071,1057.000000 214.882126,1057.000000 1.036592,1057.000000 
	C1.036592,705.064575 1.036592,353.129120 1.036592,1.096828 
	C377.225800,1.096828 753.451660,1.096828 1129.838745,1.096828 
	C1129.838745,352.999939 1129.838745,704.999939 1129.838745,1057.000000 
	C967.795349,1057.000000 805.647644,1057.000000 643.000000,1057.000000 
M727.914856,925.286987 
	C727.914856,802.686401 727.914856,680.085754 727.914856,557.354614 
	C794.820740,557.354614 861.025085,557.354614 927.761536,557.354614 
	C927.761536,559.724854 927.761536,561.691040 927.761536,563.657288 
	C927.761658,593.490051 927.761780,623.322815 927.761780,653.155579 
	C927.761902,743.487183 927.761414,833.818726 927.762878,924.150330 
	C927.763000,931.590088 927.768860,931.595825 935.402954,931.597290 
	C952.902588,931.600525 970.402283,931.608398 987.901917,931.582458 
	C989.839539,931.579590 991.776917,931.369934 993.869873,931.247070 
	C993.869873,660.660583 993.869873,390.587189 993.869873,120.304459 
	C705.307556,120.304459 417.118622,120.304459 128.362274,120.304459 
	C128.362274,123.341812 128.362274,125.978951 128.362274,128.616089 
	C128.362274,273.445587 128.362274,418.275116 128.362305,563.104614 
	C128.362335,683.268982 128.362015,803.433289 128.363312,923.597656 
	C128.363403,931.590698 128.369263,931.595337 136.553711,931.596802 
	C153.886703,931.599976 171.219727,931.606750 188.552689,931.585754 
	C190.516342,931.583374 192.479797,931.411987 195.050964,931.290222 
	C195.050964,681.534973 195.050964,432.152283 195.050964,182.541412 
	C261.899933,182.541412 328.119537,182.541412 395.020874,182.541412 
	C395.020874,432.283813 395.020874,681.652405 395.020874,931.598083 
	C397.666504,931.598083 399.634064,931.598206 401.601624,931.598083 
	C418.601288,931.597229 435.601044,931.629028 452.600586,931.583130 
	C462.477905,931.556396 461.370056,932.440308 461.370850,922.671936 
	C461.390869,679.343811 461.386627,436.015686 461.386841,192.687561 
	C461.386841,190.854263 461.546936,189.004639 461.358795,187.191010 
	C460.948822,183.238754 462.592163,182.086319 466.514557,182.092941 
	C529.679810,182.199615 592.845398,182.208786 656.010620,182.078827 
	C660.300415,182.070007 661.249878,183.500000 661.246460,187.517853 
	C661.159119,290.181427 661.195129,392.845154 661.194641,495.508820 
	C661.193909,639.005859 661.200073,782.502930 661.083618,925.999939 
	C661.080017,930.415833 662.373840,931.727722 666.735107,931.681213 
	C685.399292,931.481750 704.066772,931.606567 722.733032,931.575256 
	C724.341370,931.572571 725.949219,931.292480 727.914307,931.107605 
	C727.914307,929.187683 727.914307,927.705444 727.914856,925.286987 
M997.022583,119.494522 
	C997.022583,119.494522 996.993103,119.522995 997.022583,119.494522 
M996.991882,182.475525 
	C996.991882,182.475525 997.004395,182.518387 996.991882,182.475525 
M997.044495,494.500549 
	C997.044495,494.500549 997.001404,494.547760 997.044495,494.500549 
z"/>
<path fill="#8AA0BE" opacity="1.000000" stroke="none" 
	d="
M727.914551,925.755127 
	C727.914307,927.705444 727.914307,929.187683 727.914307,931.107605 
	C725.949219,931.292480 724.341370,931.572571 722.733032,931.575256 
	C704.066772,931.606567 685.399292,931.481750 666.735107,931.681213 
	C662.373840,931.727722 661.080017,930.415833 661.083618,925.999939 
	C661.200073,782.502930 661.193909,639.005859 661.194641,495.508820 
	C661.195129,392.845154 661.159119,290.181427 661.246460,187.517853 
	C661.249878,183.500000 660.300415,182.070007 656.010620,182.078827 
	C592.845398,182.208786 529.679810,182.199615 466.514557,182.092941 
	C462.592163,182.086319 460.948822,183.238754 461.358795,187.191010 
	C461.546936,189.004639 461.386841,190.854263 461.386841,192.687561 
	C461.386627,436.015686 461.390869,679.343811 461.370850,922.671936 
	C461.370056,932.440308 462.477905,931.556396 452.600586,931.583130 
	C435.601044,931.629028 418.601288,931.597229 401.601624,931.598083 
	C399.634064,931.598206 397.666504,931.598083 395.020874,931.598083 
	C395.020874,681.652405 395.020874,432.283813 395.020874,182.541412 
	C328.119537,182.541412 261.899933,182.541412 195.050964,182.541412 
	C195.050964,432.152283 195.050964,681.534973 195.050964,931.290222 
	C192.479797,931.411987 190.516342,931.583374 188.552689,931.585754 
	C171.219727,931.606750 153.886703,931.599976 136.553711,931.596802 
	C128.369263,931.595337 128.363403,931.590698 128.363312,923.597656 
	C128.362015,803.433289 128.362335,683.268982 128.362305,563.104614 
	C128.362274,418.275116 128.362274,273.445587 128.362274,128.616089 
	C128.362274,125.978951 128.362274,123.341812 128.362274,120.304459 
	C417.118622,120.304459 705.307556,120.304459 993.869873,120.304459 
	C993.869873,390.587189 993.869873,660.660583 993.869873,931.247070 
	C991.776917,931.369934 989.839539,931.579590 987.901917,931.582458 
	C970.402283,931.608398 952.902588,931.600525 935.402954,931.597290 
	C927.768860,931.595825 927.763000,931.590088 927.762878,924.150330 
	C927.761414,833.818726 927.761902,743.487183 927.761780,653.155579 
	C927.761780,623.322815 927.761658,593.490051 927.761536,563.657288 
	C927.761536,561.691040 927.761536,559.724854 927.761536,557.354614 
	C861.025085,557.354614 794.820740,557.354614 727.914856,557.354614 
	C727.914856,680.085754 727.914856,802.686401 727.914551,925.755127 
M927.761780,444.500153 
	C927.761475,359.001740 927.730652,273.503296 927.847351,188.005020 
	C927.853516,183.529922 926.752258,182.052597 922.044128,182.064163 
	C859.212280,182.218445 796.379944,182.164978 733.547729,182.179947 
	C731.787964,182.180374 730.028198,182.366516 728.216492,182.468994 
	C728.088562,184.212494 727.929932,185.366302 727.929810,186.520142 
	C727.917786,287.518341 727.933411,388.516571 727.853882,489.514709 
	C727.851074,493.080933 728.693115,494.504913 732.548584,494.498993 
	C796.047241,494.401642 859.546265,494.403900 923.044922,494.494263 
	C926.861023,494.499695 927.860413,493.100433 927.822449,489.498718 
	C927.668030,474.833923 927.760376,460.166595 927.761780,444.500153 
M930.502869,556.477966 
	C930.502869,556.477966 930.511780,556.519958 930.502869,556.477966 
M663.999084,182.528030 
	C663.999084,182.528030 663.985352,182.481079 663.999084,182.528030 
M664.008118,494.454590 
	C664.008118,494.454590 664.029724,494.521454 664.008118,494.454590 
z"/>
<path fill="#434A58" opacity="1.000000" stroke="none" 
	d="
M997.007812,119.508759 
	C996.993103,119.522995 997.022583,119.494522 997.007812,119.508759 
z"/>
<path fill="#4A5364" opacity="1.000000" stroke="none" 
	d="
M996.998169,182.496948 
	C997.004395,182.518387 996.991882,182.475525 996.998169,182.496948 
z"/>
<path fill="#4A5364" opacity="1.000000" stroke="none" 
	d="
M997.022949,494.524170 
	C997.001404,494.547760 997.044495,494.500549 997.022949,494.524170 
z"/>
<path fill="#333742" opacity="1.000000" stroke="none" 
	d="
M927.761780,445.000183 
	C927.760376,460.166595 927.668030,474.833923 927.822449,489.498718 
	C927.860413,493.100433 926.861023,494.499695 923.044922,494.494263 
	C859.546265,494.403900 796.047241,494.401642 732.548584,494.498993 
	C728.693115,494.504913 727.851074,493.080933 727.853882,489.514709 
	C727.933411,388.516571 727.917786,287.518341 727.929810,186.520142 
	C727.929932,185.366302 728.088562,184.212494 728.216492,182.468994 
	C730.028198,182.366516 731.787964,182.180374 733.547729,182.179947 
	C796.379944,182.164978 859.212280,182.218445 922.044128,182.064163 
	C926.752258,182.052597 927.853516,183.529922 927.847351,188.005020 
	C927.730652,273.503296 927.761475,359.001740 927.761780,445.000183 
z"/>
<path fill="#7D91AC" opacity="1.000000" stroke="none" 
	d="
M930.507324,556.498962 
	C930.511780,556.519958 930.502869,556.477966 930.507324,556.498962 
z"/>
<path fill="#74859E" opacity="1.000000" stroke="none" 
	d="
M663.992188,182.504547 
	C663.985352,182.481079 663.999084,182.528030 663.992188,182.504547 
z"/>
<path fill="#74859E" opacity="1.000000" stroke="none" 
	d="
M664.018921,494.488037 
	C664.029724,494.521454 664.008118,494.454590 664.018921,494.488037 
z"/>
</svg>